<svg width="16" height="16" viewBox="0 0 16 16" fill="none" xmlns="http://www.w3.org/2000/svg">
<path d="M15.6715 6.89522L8.62095 0.79633C8.26355 0.488463 7.73633 0.488463 7.37939 0.79633L0.328493 6.89522C-0.0679771 7.23791 -0.111752 7.83846 0.230933 8.23493C0.574108 8.63035 1.17252 8.6746 1.5711 8.33084L1.90108 8.04558V14.4846C1.90108 15.0087 2.3265 15.4341 2.85113 15.4341H5.8837V9.83138H10.1162V15.4341H13.1488C13.6734 15.4341 14.0989 15.0087 14.0989 14.4846L14.099 8.04558L14.4285 8.33084C14.6088 8.48748 14.8297 8.56233 15.0495 8.56233C15.3163 8.56233 15.581 8.45112 15.7687 8.23494C16.1118 7.83835 16.0681 7.2384 15.6716 6.8951L15.6715 6.89522Z" fill="white"/>
</svg>
